<svg width="40" height="39" viewBox="0 0 40 39" fill="none" xmlns="http://www.w3.org/2000/svg">
<g clip-path="url(#clip0_4_2162)">
<rect x="0.5" y="0.5" width="39" height="39" stroke="#E5E5E5"/>
<rect x="1" y="1" width="38" height="38" fill="#E5E5E5"/>
<g clip-path="url(#clip1_4_2162)">
<path d="M27.9844 16.704C27.9469 15.8539 27.8094 15.2694 27.6125 14.763C27.4093 14.2254 27.0968 13.7441 26.6873 13.344C26.2872 12.9377 25.8027 12.6219 25.2713 12.422C24.762 12.225 24.1805 12.0875 23.3304 12.0501C22.4739 12.0094 22.202 12 20.0297 12C17.8574 12 17.5855 12.0094 16.7322 12.0469C15.882 12.0844 15.2976 12.222 14.7912 12.4188C14.2535 12.6219 13.7723 12.9345 13.3721 13.344C12.9658 13.7441 12.6502 14.2286 12.4501 14.7599C12.2532 15.2694 12.1157 15.8507 12.0782 16.7009C12.0375 17.5574 12.0281 17.8293 12.0281 20.0016C12.0281 22.1739 12.0375 22.4458 12.075 23.2991C12.1125 24.1492 12.2501 24.7337 12.447 25.2401C12.6502 25.7777 12.9658 26.259 13.3721 26.6591C13.7723 27.0654 14.2567 27.3812 14.7881 27.5812C15.2976 27.7781 15.8789 27.9156 16.7291 27.9531C17.5823 27.9907 17.8543 27.9999 20.0266 27.9999C22.199 27.9999 22.4709 27.9907 23.3242 27.9531C24.1743 27.9156 24.7588 27.7781 25.2651 27.5812C26.3404 27.1654 27.1905 26.3153 27.6063 25.2401C27.8031 24.7306 27.9407 24.1492 27.9782 23.2991C28.0156 22.4458 28.025 22.1739 28.025 20.0016C28.025 17.8293 28.0219 17.5574 27.9844 16.704ZM26.5436 23.2366C26.5091 24.018 26.3779 24.4399 26.2685 24.7212C25.9996 25.4183 25.4464 25.9715 24.7494 26.2403C24.4681 26.3497 24.0431 26.481 23.2647 26.5153C22.4208 26.5529 22.1677 26.5622 20.0329 26.5622C17.8981 26.5622 17.6418 26.5529 16.8009 26.5153C16.0195 26.481 15.5976 26.3497 15.3163 26.2403C14.9694 26.1121 14.6536 25.909 14.3974 25.6433C14.1317 25.3838 13.9285 25.0713 13.8003 24.7244C13.6909 24.4431 13.5597 24.018 13.5254 23.2397C13.4878 22.3958 13.4785 22.1426 13.4785 20.0078C13.4785 17.873 13.4878 17.6167 13.5254 16.776C13.5597 15.9945 13.6909 15.5726 13.8003 15.2913C13.9285 14.9443 14.1317 14.6287 14.4005 14.3723C14.6599 14.1066 14.9724 13.9035 15.3194 13.7754C15.6007 13.666 16.0259 13.5347 16.8041 13.5003C17.648 13.4628 17.9012 13.4534 20.0359 13.4534C22.1739 13.4534 22.427 13.4628 23.2679 13.5003C24.0493 13.5347 24.4713 13.666 24.7526 13.7754C25.0994 13.9035 25.4152 14.1066 25.6714 14.3723C25.9371 14.6317 26.1403 14.9443 26.2685 15.2913C26.3779 15.5726 26.5091 15.9976 26.5436 16.776C26.581 17.6199 26.5904 17.873 26.5904 20.0078C26.5904 22.1426 26.581 22.3927 26.5436 23.2366Z" fill="black"/>
<path d="M20.0296 15.8911C17.7605 15.8911 15.9194 17.7321 15.9194 20.0013C15.9194 22.2705 17.7605 24.1115 20.0296 24.1115C22.2989 24.1115 24.1398 22.2705 24.1398 20.0013C24.1398 17.7321 22.2989 15.8911 20.0296 15.8911ZM20.0296 22.6675C18.5575 22.6675 17.3634 21.4735 17.3634 20.0013C17.3634 18.5291 18.5575 17.3351 20.0296 17.3351C21.5018 17.3351 22.6958 18.5291 22.6958 20.0013C22.6958 21.4735 21.5018 22.6675 20.0296 22.6675Z" fill="black"/>
<path d="M25.262 15.7291C25.262 16.259 24.8323 16.6886 24.3023 16.6886C23.7724 16.6886 23.3428 16.259 23.3428 15.7291C23.3428 15.1991 23.7724 14.7695 24.3023 14.7695C24.8323 14.7695 25.262 15.1991 25.262 15.7291Z" fill="black"/>
</g>
</g>
<defs>
<clipPath id="clip0_4_2162">
<rect width="40" height="40" fill="white"/>
</clipPath>
<clipPath id="clip1_4_2162">
<rect width="16" height="16" fill="white" transform="translate(12 12)"/>
</clipPath>
</defs>
</svg>
