<svg width="140" height="38" viewBox="0 0 140 38" fill="none" xmlns="http://www.w3.org/2000/svg">
<g clip-path="url(#clip0_4_1733)">
<path d="M106.406 3.06334V0H83.7689V38H106.406V34.9366H86.7246V20.4952H105.18V17.4318H86.7246V3.06334H106.406Z" fill="black"/>
<path d="M119.959 34.9366V0H117.003V37.927H140V34.9366H119.959Z" fill="black"/>
<path d="M72.8117 0H69.7839V14.3686L59.1866 23.6314L48.6613 14.3686V0H45.6335V15.7543L57.6727 26.3301V38H60.7005V26.3301L72.8117 15.7543V0Z" fill="black"/>
<path d="M31.7198 0L17.3017 19.62L2.95571 0H0V38H3.0278V5.10557L15.7158 22.6833H18.9599L31.6478 5.10557V38H34.6756V0H31.7198Z" fill="black"/>
</g>
<defs>
<clipPath id="clip0_4_1733">
<rect width="140" height="38" fill="white"/>
</clipPath>
</defs>
</svg>
